# xmcd
#
# Track frame offsets: 
#        150
#        24941
#        35687
#        46289
#        63152
#        76158
#        86228
#        99432
#        110612
#        125467
#        136100
#        151393
#        159885
#
# Disc length: 2435 seconds
#
# Revision: 0
# Processed by: cddbd v1.5.2PL0 Copyright (c) Steve Scherf et al.
# Submitted via: ExactAudioCopy v0.99pb4
#
DISCID=9709810d
DTITLE=Bob Log III - My Shit is Perfect
DYEAR=2008
DGENRE=
TTITLE0=Goddam Sounds Good
TTITLE1=Mr. Sis Boom Bah
TTITLE2=It's the Law
TTITLE3=Bump Pow! Bump Bump Bump Pow! Bump Pow! Bump Bump Bump Baby! B
TTITLE3=ump Pow! Bump Bump Bump Pow! Bump Pow! Bump Bump bump
TTITLE4=Manipulate your Figments
TTITLE5=Bucktooth Potato
TTITLE6=My Shit is Perfect
TTITLE7=You, or you and you, and me
TTITLE8=Bumper Car
TTITLE9=Bang your thing at the Ball
TTITLE10=Shake a little,  wiggle it, and jiggle it to
TTITLE11=Shinkansen Teh!!
TTITLE12=Goddam Sounds Good Pt. 2
EXTD=
EXTT0=
EXTT1=
EXTT2=
EXTT3=
EXTT4=
EXTT5=
EXTT6=
EXTT7=
EXTT8=
EXTT9=
EXTT10=
EXTT11=
EXTT12=
PLAYORDER=
